<svg width="34" height="34" viewBox="0 0 34 34" fill="none" xmlns="http://www.w3.org/2000/svg">
<path d="M10.2071 3.46316C10.3251 3.15838 10.5325 2.89644 10.8021 2.71178C11.0717 2.52712 11.3909 2.42839 11.7177 2.42859H22.0586C23.1842 2.42859 23.965 3.54816 23.5788 4.60459L21.0361 11.5357H26.9096C28.3401 11.5357 29.0674 13.2552 28.0717 14.2824L11.8804 30.9679C10.4961 32.3947 8.10885 31.11 8.53749 29.1684L10.5532 20.0357H7.18478C6.8065 20.0357 6.43394 19.9434 6.09934 19.7669C5.76474 19.5905 5.47819 19.3351 5.26449 19.023C5.05078 18.7109 4.91636 18.3514 4.87286 17.9756C4.82937 17.5998 4.8781 17.2191 5.01485 16.8664L10.2071 3.46316ZM11.8561 4.25002L6.71242 17.5258C6.68285 17.6025 6.6724 17.6853 6.68197 17.7669C6.69154 17.8485 6.72084 17.9266 6.76734 17.9944C6.81385 18.0622 6.87616 18.1176 6.94888 18.1559C7.02161 18.1943 7.10257 18.2143 7.18478 18.2143H11.6873C11.8236 18.2144 11.9581 18.245 12.081 18.304C12.2039 18.3629 12.3119 18.4487 12.3972 18.555C12.4825 18.6612 12.5429 18.7853 12.5739 18.918C12.6048 19.0507 12.6056 19.1887 12.5762 19.3217L10.3164 29.5618C10.3043 29.6189 10.314 29.6456 10.3213 29.6589C10.3377 29.6887 10.3627 29.7128 10.3929 29.7282C10.4224 29.745 10.4562 29.7526 10.4901 29.75C10.5046 29.7476 10.5326 29.7415 10.5738 29.7002L26.4324 13.3572H19.732C19.5854 13.3571 19.4411 13.3217 19.3111 13.2539C19.1812 13.1862 19.0695 13.0881 18.9856 12.9679C18.9017 12.8478 18.848 12.7091 18.8291 12.5638C18.8103 12.4185 18.8267 12.2708 18.8771 12.1332L21.7671 4.25002H11.8561Z" fill="white" stroke="white"/>
</svg>
