<svg width="34" height="34" viewBox="0 0 34 34" fill="none" xmlns="http://www.w3.org/2000/svg">
<path d="M7.08333 19.8333C7.08333 19.4576 6.93408 19.0972 6.6684 18.8316C6.40273 18.5659 6.04239 18.4166 5.66667 18.4166C5.29094 18.4166 4.93061 18.5659 4.66493 18.8316C4.39926 19.0972 4.25 19.4576 4.25 19.8333L4.25 26.9166C4.25 27.6681 4.54851 28.3887 5.07986 28.9201C5.61122 29.4514 6.33189 29.75 7.08333 29.75L26.9167 29.75C27.6681 29.75 28.3888 29.4514 28.9201 28.9201C29.4515 28.3887 29.75 27.6681 29.75 26.9166L29.75 19.8333C29.75 19.4576 29.6007 19.0972 29.3351 18.8316C29.0694 18.5659 28.7091 18.4166 28.3333 18.4166C27.9576 18.4166 27.5973 18.5659 27.3316 18.8316C27.0659 19.0972 26.9167 19.4576 26.9167 19.8333L26.9167 26.9166L7.08333 26.9166L7.08333 19.8333Z" fill="white"/>
<path d="M16.0082 22.2615C16.2716 22.5206 16.6261 22.6661 16.9956 22.6666L17.0041 22.6666C17.3784 22.6659 17.7371 22.5166 18.0014 22.2516L23.6681 16.5849C23.8034 16.4542 23.9113 16.2979 23.9856 16.125C24.0598 15.9522 24.0989 15.7663 24.1005 15.5782C24.1022 15.3901 24.0663 15.2036 23.9951 15.0295C23.9239 14.8554 23.8187 14.6972 23.6857 14.5642C23.5526 14.4312 23.3945 14.326 23.2204 14.2547C23.0463 14.1835 22.8597 14.1477 22.6716 14.1493C22.4835 14.1509 22.2976 14.19 22.1248 14.2642C21.9519 14.3385 21.7956 14.4464 21.6649 14.5817L18.4165 17.8301L18.4165 4.24998C18.4165 3.87426 18.2673 3.51392 18.0016 3.24824C17.7359 2.98257 17.3756 2.83331 16.9998 2.83331C16.6241 2.83331 16.2638 2.98257 15.9981 3.24824C15.7324 3.51392 15.5832 3.87426 15.5832 4.24998L15.5832 17.8301L12.3348 14.5817C12.2041 14.4464 12.0478 14.3385 11.8749 14.2642C11.7021 14.19 11.5162 14.1509 11.3281 14.1493C11.14 14.1477 10.9534 14.1835 10.7793 14.2547C10.6052 14.326 10.447 14.4312 10.314 14.5642C10.181 14.6972 10.0758 14.8554 10.0046 15.0295C9.93336 15.2036 9.89752 15.3901 9.89915 15.5782C9.90079 15.7663 9.93987 15.9522 10.0141 16.125C10.0884 16.2979 10.1963 16.4542 10.3316 16.5849L15.9983 22.2516L16.0082 22.2615Z" fill="white"/>
</svg>
