<svg width="30" height="30" viewBox="0 0 30 30" fill="none" xmlns="http://www.w3.org/2000/svg">
<path d="M6.41334 7.9167L1.14334 2.6467C1.04191 2.54864 0.96102 2.43136 0.905397 2.30171C0.849775 2.17205 0.820531 2.03262 0.819372 1.89154C0.818213 1.75046 0.845162 1.61057 0.898647 1.48001C0.952132 1.34946 1.03108 1.23087 1.13089 1.13116C1.2307 1.03144 1.34936 0.952606 1.47997 0.899244C1.61057 0.845883 1.75049 0.819065 1.89157 0.820357C2.03264 0.821649 2.17205 0.851024 2.30165 0.906769C2.43126 0.962514 2.54846 1.04351 2.64642 1.14504L28.8548 27.3534C29.0424 27.5548 29.1446 27.8212 29.1398 28.0964C29.1349 28.3717 29.0234 28.6343 28.8287 28.829C28.6341 29.0237 28.3714 29.1352 28.0962 29.14C27.8209 29.1449 27.5545 29.0427 27.3531 28.855L18.4508 19.9541L10.1618 28.5094C8.66867 30.0507 6.09317 28.6595 6.56209 26.5657L8.36126 18.536L6.13709 18.5275C5.74092 18.5258 5.35093 18.4292 4.99979 18.2457C4.64866 18.0622 4.34661 17.7973 4.11894 17.4731C3.89127 17.1488 3.74462 16.7748 3.69128 16.3822C3.63793 15.9896 3.67945 15.59 3.81234 15.2168L6.41334 7.9167ZM16.9477 18.451L8.07651 9.57987L5.81409 15.9294C5.79508 15.9827 5.78911 16.0397 5.79668 16.0958C5.80425 16.1518 5.82514 16.2053 5.8576 16.2516C5.89006 16.2979 5.93315 16.3358 5.98325 16.3621C6.03335 16.3883 6.08902 16.4022 6.14559 16.4025L9.69009 16.4167C9.84901 16.4173 10.0058 16.4536 10.1488 16.5228C10.2919 16.592 10.4176 16.6924 10.5167 16.8167C10.6158 16.9409 10.6858 17.0858 10.7214 17.2407C10.7571 17.3956 10.7576 17.5565 10.7228 17.7115L8.63609 27.0304L16.9477 18.451ZM23.7236 11.4584L19.9057 15.3981L21.4073 16.9012L25.8316 12.3367C26.9196 11.2133 26.1234 9.33337 24.5594 9.33337H18.9523L21.0093 3.16379C21.098 2.89749 21.1221 2.61392 21.0796 2.33646C21.0372 2.05901 20.9294 1.79561 20.7652 1.568C20.6009 1.34039 20.3849 1.15508 20.135 1.02735C19.8851 0.899622 19.6084 0.833134 19.3277 0.83337H10.1859C9.43651 0.83337 8.76926 1.30512 8.51709 2.0092L7.99292 3.48537L9.65467 5.14854L10.4338 2.95837H18.8361L16.4703 10.0601C16.4171 10.2196 16.4026 10.3895 16.4279 10.5557C16.4532 10.722 16.5176 10.8798 16.6158 11.0163C16.714 11.1528 16.8432 11.2641 16.9927 11.3409C17.1423 11.4178 17.3079 11.458 17.4761 11.4584H23.7236Z" fill="white" stroke="white"/>
</svg>
